<svg xmlns="http://www.w3.org/2000/svg" width="55.004" height="55.006" viewBox="0 0 55.004 55.006">
  <path id="Icon_awesome-tools" data-name="Icon awesome-tools" d="M53.831,42.507,41.252,29.928a7.976,7.976,0,0,0-9.174-1.493L20.627,16.984V10.313L6.877,0,0,6.875l10.313,13.75h6.671L28.437,32.076A7.993,7.993,0,0,0,29.93,41.25L42.509,53.83a3.994,3.994,0,0,0,5.661,0l5.661-5.661a4.013,4.013,0,0,0,0-5.661ZM35.634,24.17A11.3,11.3,0,0,1,43.68,27.5l2.084,2.084a15.206,15.206,0,0,0,4.705-3.169A15.449,15.449,0,0,0,54.54,11.731a1.286,1.286,0,0,0-2.159-.591l-7.992,7.992-7.294-1.214-1.214-7.294,7.992-7.992a1.3,1.3,0,0,0-.612-2.17A15.474,15.474,0,0,0,28.587,4.533a15.223,15.223,0,0,0-4.426,11.129l8.819,8.819a11.7,11.7,0,0,1,2.653-.312ZM24.473,32.979l-6.091-6.091L2.011,43.27a6.874,6.874,0,0,0,9.722,9.722L25.01,39.714a11.536,11.536,0,0,1-.537-6.735ZM6.877,50.7a2.578,2.578,0,1,1,2.578-2.578A2.586,2.586,0,0,1,6.877,50.7Z" transform="translate(0.004)" fill="#fff"/>
</svg>
