<svg xmlns="http://www.w3.org/2000/svg" width="74.833" height="52.383" viewBox="0 0 74.833 52.383">
  <path id="Icon_awesome-hands" data-name="Icon awesome-hands" d="M23.946,23.957a3.742,3.742,0,0,0-5.987,4.49l4.455,5.94a1.869,1.869,0,0,1-.175,2.444l-1.5,1.5a1.859,1.859,0,0,1-2.759-.129l-10.5-12.6V8.242A3.742,3.742,0,0,0,0,8.242V33.778a5.618,5.618,0,0,0,1.228,3.508L13.4,52.989a6.979,6.979,0,0,1,1.216,2.537A1.832,1.832,0,0,0,16.4,56.883H31.8a1.876,1.876,0,0,0,1.871-1.871v-13.1a14.99,14.99,0,0,0-2.993-8.98l-6.735-8.98ZM71.091,4.5a3.738,3.738,0,0,0-3.742,3.742V25.593L56.85,38.2a1.878,1.878,0,0,1-2.759.129l-1.5-1.5a1.869,1.869,0,0,1-.175-2.444l4.455-5.94a3.742,3.742,0,1,0-5.987-4.49l-6.735,8.98a14.99,14.99,0,0,0-2.993,8.98v13.1a1.876,1.876,0,0,0,1.871,1.871h15.4a1.842,1.842,0,0,0,1.789-1.356,6.979,6.979,0,0,1,1.216-2.537l12.172-15.7a5.618,5.618,0,0,0,1.228-3.508V8.242A3.738,3.738,0,0,0,71.091,4.5Z" transform="translate(0 -4.5)" fill="#fff"/>
</svg>
